<mxfile host="65bd71144e">
    <diagram id="mFBN8oD8t77RhlOwIsLI" name="Page-1">
        <mxGraphModel dx="1507" dy="1818" grid="0" gridSize="10" guides="1" tooltips="1" connect="1" arrows="1" fold="1" page="0" pageScale="1" pageWidth="850" pageHeight="1100" math="1" shadow="0">
            <root>
                <mxCell id="0"/>
                <mxCell id="1" parent="0"/>
                <mxCell id="2" value="&lt;b&gt;&lt;font&gt;LOLBO Implementation Flowchart&lt;/font&gt;&lt;/b&gt;" style="text;html=1;align=left;verticalAlign=middle;whiteSpace=wrap;rounded=0;fontSize=24;" parent="1" vertex="1">
                    <mxGeometry x="-43" y="-34" width="409" height="40" as="geometry"/>
                </mxCell>
                <mxCell id="14" style="edgeStyle=none;html=1;exitX=0.5;exitY=1;exitDx=0;exitDy=0;fillColor=#fff2cc;strokeColor=#d6b656;strokeWidth=2;" edge="1" parent="1" source="7" target="12">
                    <mxGeometry relative="1" as="geometry"/>
                </mxCell>
                <mxCell id="7" value="&lt;font face=&quot;Courier New&quot; style=&quot;font-size: 16px;&quot;&gt;&lt;b&gt;latent_space_objective.py&lt;/b&gt;&lt;/font&gt;" style="rounded=0;whiteSpace=wrap;html=1;align=left;verticalAlign=top;spacingTop=0;spacingLeft=8;" vertex="1" parent="1">
                    <mxGeometry x="-21" y="23" width="276" height="460" as="geometry"/>
                </mxCell>
                <mxCell id="9" value="" style="group;strokeWidth=1;" vertex="1" connectable="0" parent="1">
                    <mxGeometry x="364" y="45.5" width="248" height="415" as="geometry"/>
                </mxCell>
                <mxCell id="6" value="&lt;font face=&quot;Courier New&quot; style=&quot;font-size: 16px;&quot;&gt;&lt;b&gt;optimize.py&lt;/b&gt;&lt;/font&gt;" style="rounded=0;whiteSpace=wrap;html=1;align=left;verticalAlign=top;spacingTop=0;spacingLeft=8;" vertex="1" parent="9">
                    <mxGeometry width="248" height="415" as="geometry"/>
                </mxCell>
                <mxCell id="4" value="&lt;font face=&quot;Courier New&quot;&gt;&lt;b&gt;Optimize(object)&lt;/b&gt;&lt;/font&gt;" style="swimlane;childLayout=stackLayout;horizontal=1;startSize=50;horizontalStack=0;rounded=1;fontSize=14;fontStyle=0;strokeWidth=2;resizeParent=0;resizeLast=1;shadow=0;dashed=0;align=center;arcSize=4;whiteSpace=wrap;html=1;" vertex="1" parent="9">
                    <mxGeometry x="25.5" y="44" width="200" height="347" as="geometry"/>
                </mxCell>
                <mxCell id="5" value="Define LOLBO optimization run.&lt;div&gt;&lt;br&gt;&lt;/div&gt;&lt;div&gt;&lt;b&gt;&lt;font face=&quot;Courier New&quot;&gt;initialize_objective(...)&lt;/font&gt;&lt;/b&gt;&lt;/div&gt;&lt;div&gt;&lt;span style=&quot;white-space: pre;&quot;&gt;&#x9;&lt;/span&gt;Defines self.objective to be&lt;br&gt;&lt;/div&gt;&lt;div&gt;&lt;span style=&quot;white-space: pre;&quot;&gt;&#x9;&lt;/span&gt;an object of the new objective&lt;br&gt;&lt;/div&gt;&lt;div&gt;&lt;span style=&quot;white-space: pre;&quot;&gt;&#x9;&lt;/span&gt;class (LatentSpaceObjective).&lt;br&gt;&lt;/div&gt;&lt;div&gt;&lt;br&gt;&lt;/div&gt;&lt;div&gt;&lt;font face=&quot;Courier New&quot;&gt;&lt;b&gt;load_train_data(...)&lt;/b&gt;&lt;/font&gt;&lt;/div&gt;&lt;div&gt;&lt;span style=&quot;white-space: pre;&quot;&gt;&#x9;&lt;/span&gt;Loads available training data&lt;/div&gt;&lt;div&gt;&lt;span style=&quot;white-space: pre;&quot;&gt;&#x9;&lt;/span&gt;to be used initiallly.&lt;br&gt;&lt;/div&gt;&lt;div&gt;&lt;br&gt;&lt;/div&gt;&lt;div&gt;&lt;b&gt;&lt;font face=&quot;Courier New&quot;&gt;set_seed(...)&lt;/font&gt;&lt;/b&gt;&lt;/div&gt;&lt;div&gt;&lt;span style=&quot;white-space: pre;&quot;&gt;&#x9;&lt;/span&gt;Set seed for dependencies.&lt;br&gt;&lt;/div&gt;&lt;div&gt;&lt;br&gt;&lt;/div&gt;&lt;div&gt;&lt;font style=&quot;&quot; face=&quot;Courier New&quot;&gt;&lt;b&gt;run_lolbo(...)&lt;/b&gt;&lt;/font&gt;&lt;/div&gt;&lt;div&gt;&lt;span style=&quot;white-space: pre;&quot;&gt;&#x9;&lt;/span&gt;Run LOLBO, track state.&lt;br&gt;&lt;/div&gt;&lt;div&gt;&lt;br&gt;&lt;/div&gt;&lt;div&gt;Includes other methods for&lt;/div&gt;&lt;div&gt;tracking metrics to wandb.&lt;/div&gt;" style="align=left;strokeColor=none;fillColor=none;spacingLeft=4;fontSize=12;verticalAlign=top;resizable=0;rotatable=0;part=1;html=1;" vertex="1" parent="4">
                    <mxGeometry y="50" width="200" height="297" as="geometry"/>
                </mxCell>
                <mxCell id="10" value="&lt;b&gt;&lt;font face=&quot;Courier New&quot;&gt;LatentSpaceObjective&lt;/font&gt;&lt;/b&gt;" style="swimlane;childLayout=stackLayout;horizontal=1;startSize=50;horizontalStack=0;rounded=1;fontSize=14;fontStyle=0;strokeWidth=2;resizeParent=0;resizeLast=1;shadow=0;dashed=0;align=center;arcSize=4;whiteSpace=wrap;html=1;" vertex="1" parent="1">
                    <mxGeometry x="4" y="69" width="226" height="390" as="geometry"/>
                </mxCell>
                <mxCell id="11" value="Base class for defining a latent space&lt;div&gt;optimization task. It supports any task&lt;/div&gt;&lt;div&gt;with an accompanying VAE.&lt;/div&gt;&lt;div&gt;&lt;br&gt;&lt;/div&gt;&lt;div&gt;&lt;b&gt;&lt;font face=&quot;Courier New&quot;&gt;__call__(...)&lt;/font&gt;&lt;/b&gt;&lt;/div&gt;&lt;div&gt;&lt;span style=&quot;white-space: pre;&quot;&gt;&#x9;&lt;/span&gt;Takes in latent inputs, decodes to&lt;br&gt;&lt;/div&gt;&lt;div&gt;&lt;span style=&quot;white-space: pre;&quot;&gt;&#x9;&lt;/span&gt;valid search space points, and&lt;br&gt;&lt;/div&gt;&lt;div&gt;&lt;span style=&quot;white-space: pre;&quot;&gt;&#x9;&lt;/span&gt;valid scores for each valid point.&lt;br&gt;&lt;/div&gt;&lt;div&gt;&lt;br&gt;&lt;/div&gt;&lt;div&gt;&lt;b&gt;&lt;font face=&quot;Courier New&quot;&gt;vae_decode(...)&lt;/font&gt;&lt;/b&gt;&lt;/div&gt;&lt;div&gt;&lt;span style=&quot;white-space: pre;&quot;&gt;&#x9;&lt;/span&gt;Decodes tensor of latent points.&lt;br&gt;&lt;/div&gt;&lt;div&gt;&lt;br&gt;&lt;/div&gt;&lt;div&gt;&lt;b&gt;&lt;font face=&quot;Courier New&quot;&gt;query_oracle(...)&lt;/font&gt;&lt;/b&gt;&lt;/div&gt;&lt;div&gt;&lt;span style=&quot;white-space: pre;&quot;&gt;&#x9;&lt;/span&gt;Queries oracle to obtain scores.&lt;br&gt;&lt;/div&gt;&lt;div&gt;&lt;br&gt;&lt;/div&gt;&lt;div&gt;&lt;b&gt;&lt;font face=&quot;Courier New&quot;&gt;initialize_vae(...)&lt;/font&gt;&lt;/b&gt;&lt;/div&gt;&lt;div&gt;&lt;span style=&quot;white-space: pre;&quot;&gt;&#x9;&lt;/span&gt;Initializes VAE to pretrained VAE.&lt;br&gt;&lt;/div&gt;&lt;div&gt;&lt;br&gt;&lt;/div&gt;&lt;div&gt;&lt;b&gt;&lt;font face=&quot;Courier New&quot;&gt;vae_forward(...)&lt;/font&gt;&lt;/b&gt;&lt;/div&gt;&lt;div&gt;&lt;span style=&quot;white-space: pre;&quot;&gt;&#x9;&lt;/span&gt;Forward pass through VAE to&lt;br&gt;&lt;/div&gt;&lt;div&gt;&lt;span style=&quot;white-space: pre;&quot;&gt;&#x9;&lt;/span&gt;encode tensor of original space&lt;br&gt;&lt;/div&gt;&lt;div&gt;&lt;span style=&quot;white-space: pre;&quot;&gt;&#x9;&lt;/span&gt;inputs in latent space.&lt;br&gt;&lt;/div&gt;" style="align=left;strokeColor=none;fillColor=none;spacingLeft=4;fontSize=12;verticalAlign=top;resizable=0;rotatable=0;part=1;html=1;" vertex="1" parent="10">
                    <mxGeometry y="50" width="226" height="340" as="geometry"/>
                </mxCell>
                <mxCell id="12" value="Example for Molecule Tasks:&lt;div&gt;&lt;b&gt;&lt;font face=&quot;Courier New&quot;&gt;lolbo/molecule_objective.py&lt;/font&gt;&lt;/b&gt;&lt;/div&gt;" style="rounded=1;whiteSpace=wrap;html=1;fillColor=#fff2cc;strokeColor=#d6b656;" vertex="1" parent="1">
                    <mxGeometry x="-11" y="518" width="256" height="50" as="geometry"/>
                </mxCell>
                <mxCell id="13" value="Example for Molecule Tasks:&lt;div&gt;&lt;b&gt;&lt;font face=&quot;Courier New&quot;&gt;scripts/molecule_optimization.py&lt;/font&gt;&lt;/b&gt;&lt;/div&gt;" style="rounded=1;whiteSpace=wrap;html=1;fillColor=#fff2cc;strokeColor=#d6b656;" vertex="1" parent="1">
                    <mxGeometry x="360" y="497" width="256" height="50" as="geometry"/>
                </mxCell>
                <mxCell id="15" style="edgeStyle=none;html=1;exitX=0.5;exitY=1;exitDx=0;exitDy=0;fillColor=#fff2cc;strokeColor=#d6b656;strokeWidth=2;" edge="1" parent="1" source="6" target="13">
                    <mxGeometry relative="1" as="geometry"/>
                </mxCell>
                <mxCell id="8" style="edgeStyle=none;html=1;entryX=0;entryY=0.25;entryDx=0;entryDy=0;strokeWidth=2;" edge="1" parent="1" source="7" target="5">
                    <mxGeometry relative="1" as="geometry"/>
                </mxCell>
                <mxCell id="45" style="edgeStyle=none;html=1;exitX=1;exitY=0.75;exitDx=0;exitDy=0;strokeWidth=2;entryX=1;entryY=0.404;entryDx=0;entryDy=0;entryPerimeter=0;" edge="1" parent="1" source="6" target="49">
                    <mxGeometry relative="1" as="geometry">
                        <mxPoint x="772" y="752" as="targetPoint"/>
                        <Array as="points">
                            <mxPoint x="904" y="357"/>
                            <mxPoint x="904" y="885"/>
                        </Array>
                    </mxGeometry>
                </mxCell>
                <mxCell id="46" value="Run LOLBO using the &lt;b&gt;&lt;font face=&quot;Courier New&quot;&gt;Fire&lt;/font&gt;&lt;/b&gt; module over instance of &lt;b&gt;&lt;font face=&quot;Courier New&quot;&gt;Optimize&lt;/font&gt;&lt;/b&gt; class.&lt;div&gt;&lt;br&gt;&lt;/div&gt;&lt;div&gt;The&amp;nbsp;module takes in command line arguments (in this case, parameters&lt;/div&gt;&lt;div&gt;for running LOLBO) and calls the&amp;nbsp;&lt;b&gt;&lt;font face=&quot;Courier New&quot;&gt;run_lolbo(...)&lt;/font&gt;&lt;/b&gt;&amp;nbsp;method.&lt;/div&gt;" style="shape=process;whiteSpace=wrap;html=1;backgroundOutline=1;strokeWidth=2;fillColor=#dae8fc;strokeColor=#6c8ebf;size=0.07854406130268199;" vertex="1" parent="1">
                    <mxGeometry x="774" y="447" width="261" height="139" as="geometry"/>
                </mxCell>
                <mxCell id="96" value="" style="group" vertex="1" connectable="0" parent="1">
                    <mxGeometry x="80" y="633" width="687" height="624" as="geometry"/>
                </mxCell>
                <mxCell id="49" value="&lt;font face=&quot;Courier New&quot; style=&quot;font-size: 16px;&quot;&gt;&lt;b&gt;Fire &amp;gt;&amp;gt; run_lolbo&lt;/b&gt;&lt;/font&gt;" style="rounded=0;whiteSpace=wrap;html=1;align=left;verticalAlign=top;spacingLeft=6;movable=1;resizable=1;rotatable=1;deletable=1;editable=1;locked=0;connectable=1;" vertex="1" parent="96">
                    <mxGeometry width="687" height="624" as="geometry"/>
                </mxCell>
                <mxCell id="86" style="edgeStyle=none;html=1;exitX=0.085;exitY=0.967;exitDx=0;exitDy=0;entryX=0;entryY=0.5;entryDx=0;entryDy=0;exitPerimeter=0;" edge="1" parent="96" source="72" target="74">
                    <mxGeometry relative="1" as="geometry">
                        <Array as="points">
                            <mxPoint x="95" y="133"/>
                        </Array>
                    </mxGeometry>
                </mxCell>
                <mxCell id="87" style="edgeStyle=none;html=1;exitX=0.085;exitY=1;exitDx=0;exitDy=0;entryX=0;entryY=0.5;entryDx=0;entryDy=0;exitPerimeter=0;" edge="1" parent="96" source="72" target="75">
                    <mxGeometry relative="1" as="geometry">
                        <Array as="points">
                            <mxPoint x="95" y="231"/>
                        </Array>
                    </mxGeometry>
                </mxCell>
                <mxCell id="72" value="while evaluation budget is not exhausted:" style="whiteSpace=wrap;html=1;fontSize=16;align=center;fontFamily=Courier New;fontStyle=1;strokeColor=#666666;fillColor=#f5f5f5;fontColor=#333333;" vertex="1" parent="96">
                    <mxGeometry x="60" y="41" width="411" height="30" as="geometry"/>
                </mxCell>
                <mxCell id="76" value="" style="group" vertex="1" connectable="0" parent="96">
                    <mxGeometry x="136" y="83" width="336" height="100" as="geometry"/>
                </mxCell>
                <mxCell id="74" value="" style="rounded=1;whiteSpace=wrap;html=1;fillColor=#dae8fc;strokeColor=#6c8ebf;" vertex="1" parent="76">
                    <mxGeometry width="336" height="100" as="geometry"/>
                </mxCell>
                <mxCell id="69" value="" style="group" vertex="1" connectable="0" parent="76">
                    <mxGeometry x="11" y="12" width="314" height="76" as="geometry"/>
                </mxCell>
                <mxCell id="55" value="If no progress is made, finetune VAE end to end with surrogate model.&lt;div&gt;&lt;span style=&quot;color: rgb(63, 63, 63); background-color: transparent;&quot;&gt;Then, recenter to find new points in the finetuned latent space.&lt;/span&gt;&lt;/div&gt;" style="whiteSpace=wrap;html=1;align=left;strokeColor=none;fillColor=none;fontSize=14;" vertex="1" parent="69">
                    <mxGeometry x="64" width="250" height="76" as="geometry"/>
                </mxCell>
                <mxCell id="62" value="" style="sketch=0;outlineConnect=0;fontColor=#232F3E;gradientColor=none;fillColor=#000000;strokeColor=none;dashed=0;verticalLabelPosition=bottom;verticalAlign=top;align=center;html=1;fontSize=12;fontStyle=0;aspect=fixed;pointerEvents=1;shape=mxgraph.aws4.iot_greengrass_interprocess_communication;" vertex="1" parent="69">
                    <mxGeometry y="10.5" width="55" height="55" as="geometry"/>
                </mxCell>
                <mxCell id="80" value="" style="group" vertex="1" connectable="0" parent="96">
                    <mxGeometry x="136" y="193" width="336" height="75" as="geometry"/>
                </mxCell>
                <mxCell id="75" value="" style="rounded=1;whiteSpace=wrap;html=1;fillColor=#dae8fc;strokeColor=#6c8ebf;" vertex="1" parent="80">
                    <mxGeometry width="336" height="75" as="geometry"/>
                </mxCell>
                <mxCell id="70" value="" style="group" vertex="1" connectable="0" parent="80">
                    <mxGeometry x="11" y="10" width="314" height="55" as="geometry"/>
                </mxCell>
                <mxCell id="56" value="If progress is made, update the surrogate model using available data." style="whiteSpace=wrap;html=1;align=left;strokeColor=none;fillColor=none;fontSize=14;" vertex="1" parent="70">
                    <mxGeometry x="64" y="8" width="250" height="39" as="geometry"/>
                </mxCell>
                <mxCell id="61" value="" style="sketch=0;outlineConnect=0;fontColor=#232F3E;gradientColor=none;fillColor=#000000;strokeColor=none;dashed=0;verticalLabelPosition=bottom;verticalAlign=top;align=center;html=1;fontSize=12;fontStyle=0;aspect=fixed;pointerEvents=1;shape=mxgraph.aws4.iot_greengrass_component_nucleus;strokeWidth=1;" vertex="1" parent="70">
                    <mxGeometry width="55" height="55" as="geometry"/>
                </mxCell>
                <mxCell id="81" value="" style="group" vertex="1" connectable="0" parent="96">
                    <mxGeometry x="136" y="293" width="336" height="75" as="geometry"/>
                </mxCell>
                <mxCell id="77" value="" style="rounded=1;whiteSpace=wrap;html=1;fillColor=#dae8fc;strokeColor=#6c8ebf;" vertex="1" parent="81">
                    <mxGeometry width="336" height="75" as="geometry"/>
                </mxCell>
                <mxCell id="71" value="" style="group" vertex="1" connectable="0" parent="81">
                    <mxGeometry x="10" y="5" width="315" height="65" as="geometry"/>
                </mxCell>
                <mxCell id="57" value="Generate new candidate points, evaluate them, update dataset." style="whiteSpace=wrap;html=1;align=left;strokeColor=none;fillColor=none;fontSize=14;" vertex="1" parent="71">
                    <mxGeometry x="65" y="13" width="250" height="39" as="geometry"/>
                </mxCell>
                <mxCell id="60" value="" style="sketch=0;points=[[0,0,0],[0.25,0,0],[0.5,0,0],[0.75,0,0],[1,0,0],[0,1,0],[0.25,1,0],[0.5,1,0],[0.75,1,0],[1,1,0],[0,0.25,0],[0,0.5,0],[0,0.75,0],[1,0.25,0],[1,0.5,0],[1,0.75,0]];outlineConnect=0;fontColor=#232F3E;fillColor=none;strokeColor=#000000;dashed=0;verticalLabelPosition=bottom;verticalAlign=top;align=center;html=1;fontSize=12;fontStyle=0;aspect=fixed;shape=mxgraph.aws4.resourceIcon;resIcon=mxgraph.aws4.omics;strokeWidth=1;" vertex="1" parent="71">
                    <mxGeometry width="65" height="65" as="geometry"/>
                </mxCell>
                <mxCell id="83" value="" style="group" vertex="1" connectable="0" parent="96">
                    <mxGeometry x="258" y="497" width="336" height="75" as="geometry"/>
                </mxCell>
                <mxCell id="79" value="" style="rounded=1;whiteSpace=wrap;html=1;fillColor=#dae8fc;strokeColor=#6c8ebf;" vertex="1" parent="83">
                    <mxGeometry width="336" height="75" as="geometry"/>
                </mxCell>
                <mxCell id="65" value="" style="group" vertex="1" connectable="0" parent="83">
                    <mxGeometry x="9" y="5" width="319" height="65" as="geometry"/>
                </mxCell>
                <mxCell id="52" value="" style="sketch=0;points=[[0,0,0],[0.25,0,0],[0.5,0,0],[0.75,0,0],[1,0,0],[0,1,0],[0.25,1,0],[0.5,1,0],[0.75,1,0],[1,1,0],[0,0.25,0],[0,0.5,0],[0,0.75,0],[1,0.25,0],[1,0.5,0],[1,0.75,0]];outlineConnect=0;dashed=0;verticalLabelPosition=bottom;verticalAlign=top;align=center;html=1;fontSize=12;fontStyle=0;aspect=fixed;shape=mxgraph.aws4.resourceIcon;resIcon=mxgraph.aws4.forecast;fillColor=none;" vertex="1" parent="65">
                    <mxGeometry width="65" height="65" as="geometry"/>
                </mxCell>
                <mxCell id="53" value="Report new best if found." style="whiteSpace=wrap;html=1;align=left;strokeColor=none;fillColor=none;fontSize=14;" vertex="1" parent="65">
                    <mxGeometry x="69" y="13" width="250" height="39" as="geometry"/>
                </mxCell>
                <mxCell id="84" value="" style="group" vertex="1" connectable="0" parent="96">
                    <mxGeometry x="193" y="394" width="336" height="75" as="geometry"/>
                </mxCell>
                <mxCell id="78" value="" style="rounded=1;whiteSpace=wrap;html=1;fillColor=#dae8fc;strokeColor=#6c8ebf;" vertex="1" parent="84">
                    <mxGeometry width="336" height="75" as="geometry"/>
                </mxCell>
                <mxCell id="82" value="" style="group" vertex="1" connectable="0" parent="84">
                    <mxGeometry x="8" y="5" width="319" height="65" as="geometry"/>
                </mxCell>
                <mxCell id="59" value="Initialize new trust region state if trust region restart has been triggered." style="whiteSpace=wrap;html=1;align=left;strokeColor=none;fillColor=none;fontSize=14;" vertex="1" parent="82">
                    <mxGeometry x="69" y="13" width="250" height="39" as="geometry"/>
                </mxCell>
                <mxCell id="63" value="" style="sketch=0;points=[[0,0,0],[0.25,0,0],[0.5,0,0],[0.75,0,0],[1,0,0],[0,1,0],[0.25,1,0],[0.5,1,0],[0.75,1,0],[1,1,0],[0,0.25,0],[0,0.5,0],[0,0.75,0],[1,0.25,0],[1,0.5,0],[1,0.75,0]];outlineConnect=0;fontColor=#232F3E;fillColor=none;strokeColor=#000000;dashed=0;verticalLabelPosition=bottom;verticalAlign=top;align=center;html=1;fontSize=12;fontStyle=0;aspect=fixed;shape=mxgraph.aws4.resourceIcon;resIcon=mxgraph.aws4.pinpoint;" vertex="1" parent="82">
                    <mxGeometry width="65" height="65" as="geometry"/>
                </mxCell>
                <mxCell id="88" style="edgeStyle=orthogonalEdgeStyle;html=1;exitX=1;exitY=0.5;exitDx=0;exitDy=0;entryX=1;entryY=0.5;entryDx=0;entryDy=0;" edge="1" parent="96" source="74" target="77">
                    <mxGeometry relative="1" as="geometry">
                        <Array as="points">
                            <mxPoint x="660" y="133"/>
                            <mxPoint x="660" y="331"/>
                        </Array>
                    </mxGeometry>
                </mxCell>
                <mxCell id="90" style="edgeStyle=orthogonalEdgeStyle;html=1;entryX=1;entryY=0.5;entryDx=0;entryDy=0;exitX=1;exitY=0.5;exitDx=0;exitDy=0;" edge="1" parent="96" source="75" target="77">
                    <mxGeometry relative="1" as="geometry">
                        <Array as="points">
                            <mxPoint x="660" y="231"/>
                            <mxPoint x="660" y="331"/>
                        </Array>
                    </mxGeometry>
                </mxCell>
                <mxCell id="93" style="edgeStyle=none;html=1;exitX=0.086;exitY=1;exitDx=0;exitDy=0;entryX=0;entryY=0.5;entryDx=0;entryDy=0;exitPerimeter=0;" edge="1" parent="96" source="77" target="78">
                    <mxGeometry relative="1" as="geometry">
                        <Array as="points">
                            <mxPoint x="164" y="432"/>
                        </Array>
                    </mxGeometry>
                </mxCell>
                <mxCell id="94" style="edgeStyle=none;html=1;exitX=0.077;exitY=1;exitDx=0;exitDy=0;entryX=0;entryY=0.5;entryDx=0;entryDy=0;exitPerimeter=0;" edge="1" parent="96" source="78" target="79">
                    <mxGeometry relative="1" as="geometry">
                        <Array as="points">
                            <mxPoint x="219" y="535"/>
                        </Array>
                    </mxGeometry>
                </mxCell>
                <mxCell id="95" style="edgeStyle=none;html=1;exitX=0.5;exitY=1;exitDx=0;exitDy=0;entryX=0;entryY=0.5;entryDx=0;entryDy=0;fillColor=#f8cecc;strokeColor=#b85450;strokeWidth=2;" edge="1" parent="96" source="79" target="72">
                    <mxGeometry relative="1" as="geometry">
                        <Array as="points">
                            <mxPoint x="426" y="594"/>
                            <mxPoint x="36" y="594"/>
                            <mxPoint x="36" y="56"/>
                        </Array>
                    </mxGeometry>
                </mxCell>
            </root>
        </mxGraphModel>
    </diagram>
</mxfile>